<?xml version="1.0" encoding="UTF-8"?>
<svg version="1.1" xmlns="http://www.w3.org/2000/svg" width="1038" height="1036">
<path d="M0 0 C342.54 0 685.08 0 1038 0 C1038 341.88 1038 683.76 1038 1036 C695.46 1036 352.92 1036 0 1036 C0 694.12 0 352.24 0 0 Z " fill="#EFEFEF" transform="translate(0,0)"/>
<path d="M0 0 C0.79341797 -0.00386719 1.58683594 -0.00773437 2.40429688 -0.01171875 C3.64083008 0.00568359 3.64083008 0.00568359 4.90234375 0.0234375 C6.14467773 0.00603516 6.14467773 0.00603516 7.41210938 -0.01171875 C8.20423828 -0.00785156 8.99636719 -0.00398438 9.8125 0 C10.89930054 0.00507568 10.89930054 0.00507568 12.00805664 0.01025391 C13.83984375 0.3984375 13.83984375 0.3984375 15.83984375 3.3984375 C16.44439426 10.81307166 16.19755847 18.11454914 14.36328125 25.33203125 C11.03159261 38.48474238 14.97095459 51.93224647 17.46484375 64.9609375 C20.44496827 80.58306394 20.44496827 80.58306394 18.83984375 85.3984375 C18.75918155 86.87967297 18.73223182 88.36425954 18.7421875 89.84765625 C18.74541016 90.69521484 18.74863281 91.54277344 18.75195312 92.41601562 C18.76033203 93.29708984 18.76871094 94.17816406 18.77734375 95.0859375 C18.78185547 95.97861328 18.78636719 96.87128906 18.79101562 97.79101562 C18.80279392 99.99355737 18.81924211 102.19596349 18.83984375 104.3984375 C17.18984375 104.0684375 15.53984375 103.7384375 13.83984375 103.3984375 C14.38125 104.16027344 14.38125 104.16027344 14.93359375 104.9375 C17.82781839 109.23059988 19.51057385 112.03259673 18.83984375 117.3984375 C19.49984375 117.3984375 20.15984375 117.3984375 20.83984375 117.3984375 C22.99799014 124.71215582 22.63268226 130.0202175 20.83984375 137.3984375 C22.48984375 137.7284375 24.13984375 138.0584375 25.83984375 138.3984375 C27.77817953 143.38272951 28.48904486 148.32340905 29.1796875 153.59375 C29.91099716 156.70073423 30.51402039 158.21236318 32.83984375 160.3984375 C35.78500027 161.31187646 35.78500027 161.31187646 39.02734375 161.6484375 C40.65736328 161.87273437 40.65736328 161.87273437 42.3203125 162.1015625 C43.15175781 162.19953125 43.98320313 162.2975 44.83984375 162.3984375 C44.83984375 164.3784375 44.83984375 166.3584375 44.83984375 168.3984375 C40.06626503 171.11235028 36.49595838 172.96404896 30.83984375 172.3984375 C30.83984375 173.0584375 30.83984375 173.7184375 30.83984375 174.3984375 C26.87984375 174.3984375 22.91984375 174.3984375 18.83984375 174.3984375 C18.741875 173.22667969 18.64390625 172.05492187 18.54296875 170.84765625 C17.79960459 162.77647664 16.90099902 155.592699 13.79296875 148.04296875 C10.96347179 140.19227433 10.55949947 131.66859371 10.83984375 123.3984375 C10.2159375 123.11226562 9.59203125 122.82609375 8.94921875 122.53125 C6.47517573 121.20259727 5.3819991 119.71167052 3.83984375 117.3984375 C-0.10301122 118.71272249 -0.37302516 120.19817201 -2.22265625 123.8359375 C-4.98101186 129.21929311 -4.98101186 129.21929311 -7.16015625 131.3984375 C-8.05734375 131.553125 -8.05734375 131.553125 -8.97265625 131.7109375 C-12.36563833 132.7773033 -13.91768573 134.68386792 -16.16015625 137.3984375 C-16.49015625 138.5534375 -16.82015625 139.7084375 -17.16015625 140.8984375 C-18.35466891 145.07923181 -19.97387912 146.50855824 -23.16015625 149.3984375 C-25.93362204 152.15683011 -27.93895393 154.51362822 -28.91015625 158.3984375 C-27.92051004 162.35702235 -25.98033298 163.5572451 -22.69140625 165.80859375 C-21.16015625 167.3984375 -21.16015625 167.3984375 -20.94140625 170.08203125 C-21.01359375 170.84644531 -21.08578125 171.61085938 -21.16015625 172.3984375 C-23.2416956 172.53379772 -25.32576831 172.63059215 -27.41015625 172.7109375 C-29.15039062 172.79794922 -29.15039062 172.79794922 -30.92578125 172.88671875 C-34.16015625 172.3984375 -34.16015625 172.3984375 -36.35546875 169.984375 C-36.95101563 169.13101563 -37.5465625 168.27765625 -38.16015625 167.3984375 C-40.46159734 166.32707699 -42.79417755 165.31854033 -45.16015625 164.3984375 C-45.82015625 163.7384375 -46.48015625 163.0784375 -47.16015625 162.3984375 C-46.94819117 157.79801011 -44.80404812 155.40078861 -41.84765625 152.0234375 C-38.39876302 147.9649469 -35.57960362 144.13213887 -33.16015625 139.3984375 C-32.50015625 139.3984375 -31.84015625 139.3984375 -31.16015625 139.3984375 C-31.03640625 138.8003125 -30.91265625 138.2021875 -30.78515625 137.5859375 C-30.16015625 135.3984375 -30.16015625 135.3984375 -28.16015625 132.3984375 C-27.17015625 132.0684375 -26.18015625 131.7384375 -25.16015625 131.3984375 C-23.55214944 129.42640776 -22.061771 127.47160488 -20.59765625 125.3984375 C-16.40679904 119.5217589 -16.40679904 119.5217589 -14.16015625 118.3984375 C-12.26602988 112.81574925 -11.98773576 107.55459203 -12.8671875 101.78125 C-13.41322664 97.34013165 -13.23530377 92.86554019 -13.16015625 88.3984375 C-13.82015625 88.3984375 -14.48015625 88.3984375 -15.16015625 88.3984375 C-15.95518493 91.46395349 -16.60947827 94.54166906 -17.22265625 97.6484375 C-17.39925781 98.54046875 -17.57585937 99.4325 -17.7578125 100.3515625 C-17.89058594 101.02703125 -18.02335937 101.7025 -18.16015625 102.3984375 C-18.82015625 102.3984375 -19.48015625 102.3984375 -20.16015625 102.3984375 C-20.16015625 103.7184375 -20.16015625 105.0384375 -20.16015625 106.3984375 C-23.47265625 107.0859375 -23.47265625 107.0859375 -27.16015625 107.3984375 C-29.09765625 106.0859375 -29.09765625 106.0859375 -30.16015625 104.3984375 C-30.16015625 103.7384375 -30.16015625 103.0784375 -30.16015625 102.3984375 C-29.17015625 102.3984375 -28.18015625 102.3984375 -27.16015625 102.3984375 C-27.05703125 101.3259375 -26.95390625 100.2534375 -26.84765625 99.1484375 C-26.16015625 95.3984375 -26.16015625 95.3984375 -24.63110352 93.56469727 C-22.61607184 90.59716597 -22.84814381 88.54810019 -22.9375 84.98828125 C-22.96553711 83.13299805 -22.96553711 83.13299805 -22.99414062 81.24023438 C-23.02830078 79.95181641 -23.06246094 78.66339844 -23.09765625 77.3359375 C-23.15750656 74.78274856 -23.20870618 72.22933772 -23.25 69.67578125 C-23.27956787 68.54390381 -23.30913574 67.41202637 -23.33959961 66.24584961 C-23.16015625 63.3984375 -23.16015625 63.3984375 -21.16015625 60.3984375 C-20.59023201 58.10326959 -20.59023201 58.10326959 -20.22265625 55.5234375 C-20.0525 54.55019531 -19.88234375 53.57695313 -19.70703125 52.57421875 C-19.33373436 50.40643039 -18.96954317 48.23705924 -18.61328125 46.06640625 C-16.94510739 37.32883706 -13.93761526 32.78430151 -7.4921875 26.8671875 C-5.39562413 24.55543434 -5.34344256 22.45320941 -5.16015625 19.3984375 C-5.47984375 18.625 -5.79953125 17.8515625 -6.12890625 17.0546875 C-7.2660892 14.12557991 -7.45971834 11.90441244 -7.47265625 8.7734375 C-7.48941406 7.83242188 -7.50617187 6.89140625 -7.5234375 5.921875 C-6.86598307 1.35504102 -4.40576961 0.02054428 0 0 Z " fill="#070B0D" transform="translate(526.16015625,481.6015625)"/>
<path d="M0 0 C1.93709638 3.25753924 2.23715445 5.65609928 2.1953125 9.421875 C2.18564453 10.95908203 2.18564453 10.95908203 2.17578125 12.52734375 C2.15902344 13.59082031 2.14226562 14.65429688 2.125 15.75 C2.11597656 16.82894531 2.10695313 17.90789063 2.09765625 19.01953125 C2.07411305 21.67991278 2.04122799 24.33984336 2 27 C3.98 27 5.96 27 8 27 C7.01 30.96 6.02 34.92 5 39 C4.34 39 3.68 39 3 39 C3 40.32 3 41.64 3 43 C-0.3125 43.6875 -0.3125 43.6875 -4 44 C-5.9375 42.6875 -5.9375 42.6875 -7 41 C-7 40.34 -7 39.68 -7 39 C-6.01 39 -5.02 39 -4 39 C-3.8453125 37.39125 -3.8453125 37.39125 -3.6875 35.75 C-3 32 -3 32 -1.4753418 30.17285156 C0.55221905 27.18670369 0.34183825 25.06813825 0.29296875 21.484375 C0.2784668 19.60878906 0.2784668 19.60878906 0.26367188 17.6953125 C0.2259668 15.74238281 0.2259668 15.74238281 0.1875 13.75 C0.17396484 12.43257812 0.16042969 11.11515625 0.14648438 9.7578125 C0.11112551 6.50479679 0.06177033 3.252604 0 0 Z " fill="#737674" transform="translate(503,545)"/>
<path d="M0 0 C0.33 0.99 0.66 1.98 1 3 C0.67 3.66 0.34 4.32 0 5 C0.66 5.33 1.32 5.66 2 6 C1.01 6 0.02 6 -1 6 C-1 7.32 -1 8.64 -1 10 C-1.66 10 -2.32 10 -3 10 C-4.05525222 12.03512928 -5.02323622 14.05809056 -5.875 16.1875 C-6.88202056 18.70505141 -7.92329385 21.19911246 -9 23.6875 C-9.33 24.45449219 -9.66 25.22148438 -10 26.01171875 C-11 28 -11 28 -13 30 C-15.3756951 28.21822867 -15.95924634 27.19924012 -16.5625 24.25 C-15.78335963 19.74830009 -13.40688445 16.98323042 -10 14 C-9.34 14 -8.68 14 -8 14 C-6.22222721 10.71795793 -5.04555792 7.3379754 -3.87890625 3.8046875 C-3 2 -3 2 0 0 Z " fill="#D3D3D3" transform="translate(513,616)"/>
<path d="M0 0 C0.33 0 0.66 0 1 0 C1.67178263 4.08250882 2.33653942 8.16613117 3 12.25 C3.19078125 13.40886719 3.3815625 14.56773437 3.578125 15.76171875 C3.75859375 16.87675781 3.9390625 17.99179687 4.125 19.140625 C4.29257812 20.16704102 4.46015625 21.19345703 4.6328125 22.25097656 C5 25 5 25 5 29 C4.21625 28.649375 3.4325 28.29875 2.625 27.9375 C1.75875 27.628125 0.8925 27.31875 0 27 C-0.66 27.33 -1.32 27.66 -2 28 C-2.99 27.67 -3.98 27.34 -5 27 C-5 26.34 -5 25.68 -5 25 C-4.01 25 -3.02 25 -2 25 C-2.33 23.68 -2.66 22.36 -3 21 C-3.66 21 -4.32 21 -5 21 C-5.33 21.66 -5.66 22.32 -6 23 C-5.505 18.545 -5.505 18.545 -5 14 C-3.515 14.99 -3.515 14.99 -2 16 C0.35641524 14.08593338 0.35641524 14.08593338 0.1953125 10.7421875 C0.17210937 9.46601562 0.14890625 8.18984375 0.125 6.875 C0.09792969 4.95300781 0.09792969 4.95300781 0.0703125 2.9921875 C0.04710937 2.00476563 0.02390625 1.01734375 0 0 Z " fill="#1E2526" transform="translate(537,513)"/>
<path d="M0 0 C1.32 0.33 2.64 0.66 4 1 C4 1.99 4 2.98 4 4 C4.66 4 5.32 4 6 4 C8.32019297 7.19026533 10.34643078 10.41726669 12 14 C10.35 14.33 8.7 14.66 7 15 C6.67 15.99 6.34 16.98 6 18 C2.4370653 14.15463755 1.37753766 11.36468573 0.75 6.1875 C0.60046875 5.02605469 0.4509375 3.86460937 0.296875 2.66796875 C0.19890625 1.78753906 0.1009375 0.90710938 0 0 Z " fill="#D9DAD8" transform="translate(553,625)"/>
<path d="M0 0 C0.33 0 0.66 0 1 0 C1.55353075 15.74487472 1.55353075 15.74487472 -2 23 C-4.16874252 22.49396008 -5.99967627 22.00016187 -8 21 C-8.125 17.625 -8.125 17.625 -8 14 C-6 12 -6 12 -2 11 C-1.34 7.37 -0.68 3.74 0 0 Z " fill="#606561" transform="translate(541,485)"/>
<path d="M0 0 C0.33 0 0.66 0 1 0 C1 4.29 1 8.58 1 13 C4.96 13 8.92 13 13 13 C13 12.34 13 11.68 13 11 C14.216875 10.71125 15.43375 10.4225 16.6875 10.125 C21.50530488 8.98488534 21.50530488 8.98488534 26 7 C26.89386164 4.45224694 26.89386164 4.45224694 27 2 C27.66 2.66 28.32 3.32 29 4 C28.625 7.125 28.625 7.125 28 10 C27.34 10 26.68 10 26 10 C26 10.66 26 11.32 26 12 C20.4897515 14.32492213 15.48887115 14.23374511 9.625 14.125 C8.23474609 14.11146484 8.23474609 14.11146484 6.81640625 14.09765625 C4.54415841 14.07423101 2.2720447 14.03836473 0 14 C0 9.38 0 4.76 0 0 Z " fill="#C0C4C2" transform="translate(544,643)"/>
<path d="M0 0 C4.80172134 1.10808954 7.91161335 2.04686508 11 6 C11 6.66 11 7.32 11 8 C14.96 8 18.92 8 23 8 C23 8.33 23 8.66 23 9 C20.22949974 9.1946838 17.45886998 9.38102792 14.6875 9.5625 C13.90181641 9.61857422 13.11613281 9.67464844 12.30664062 9.73242188 C11.1706543 9.80493164 11.1706543 9.80493164 10.01171875 9.87890625 C9.31522217 9.9260376 8.61872559 9.97316895 7.90112305 10.02172852 C6 10 6 10 3 9 C3.66 9 4.32 9 5 9 C5 8.34 5 7.68 5 7 C3.68 6.67 2.36 6.34 1 6 C0.67 4.02 0.34 2.04 0 0 Z " fill="#D5D6D5" transform="translate(481,646)"/>
<path d="M0 0 C3.63 0.33 7.26 0.66 11 1 C11 2.98 11 4.96 11 7 C6.22642128 9.71391278 2.65611463 11.56561146 -3 11 C-3 10.67 -3 10.34 -3 10 C-1.35 10 0.3 10 2 10 C1.67 9.01 1.34 8.02 1 7 C2.32 6.67 3.64 6.34 5 6 C5 5.34 5 4.68 5 4 C4.01 3.67 3.02 3.34 2 3 C2 2.34 2 1.68 2 1 C1.34 0.67 0.68 0.34 0 0 Z " fill="#181F1E" transform="translate(560,643)"/>
<path d="M0 0 C0.66 0 1.32 0 2 0 C2.66 5.61 3.32 11.22 4 17 C3.34 17 2.68 17 2 17 C1.34 16.01 0.68 15.02 0 14 C-1.65 15.32 -3.3 16.64 -5 18 C-5 16.68 -5 15.36 -5 14 C-4.34 14 -3.68 14 -3 14 C-2.95101563 13.32453125 -2.90203125 12.6490625 -2.8515625 11.953125 C-2.77679688 11.06109375 -2.70203125 10.1690625 -2.625 9.25 C-2.55539062 8.36828125 -2.48578125 7.4865625 -2.4140625 6.578125 C-2.00149945 4.00933618 -1.28839043 2.24158985 0 0 Z " fill="#DBDEDC" transform="translate(511,570)"/>
<path d="M0 0 C0.66 0.33 1.32 0.66 2 1 C2 3.97 2 6.94 2 10 C1.34 10 0.68 10 0 10 C0 11.65 0 13.3 0 15 C1.6260287 14.93999894 3.25101549 14.8512115 4.875 14.75 C5.77992188 14.70359375 6.68484375 14.6571875 7.6171875 14.609375 C10.17110544 14.24388852 10.17110544 14.24388852 11.3203125 11.953125 C11.65675781 10.98632812 11.65675781 10.98632812 12 10 C12.99 10 13.98 10 15 10 C13.92598892 12.91517292 13.22189824 14.77810176 11 17 C10.175 17.12375 9.35 17.2475 8.5 17.375 C5.83529804 17.73647686 5.83529804 17.73647686 4.6875 20.0625 C4.460625 20.701875 4.23375 21.34125 4 22 C4 20.35 4 18.7 4 17 C2.35 16.67 0.7 16.34 -1 16 C-1.11521265 10.58500559 -0.68201156 5.37084106 0 0 Z " fill="#A1A4A4" transform="translate(548,603)"/>
<path d="M0 0 C0.33 0.99 0.66 1.98 1 3 C0.67 3.66 0.34 4.32 0 5 C0.66 5.33 1.32 5.66 2 6 C1.01 6 0.02 6 -1 6 C-1 7.32 -1 8.64 -1 10 C-1.66 10 -2.32 10 -3 10 C-4.52299523 12.93720508 -5.80100302 15.9168649 -7 19 C-7.12375 18.360625 -7.2475 17.72125 -7.375 17.0625 C-7.58125 16.381875 -7.7875 15.70125 -8 15 C-8.66 14.67 -9.32 14.34 -10 14 C-9.34 14 -8.68 14 -8 14 C-6.22222721 10.71795793 -5.04555792 7.3379754 -3.87890625 3.8046875 C-3 2 -3 2 0 0 Z " fill="#B0B1B0" transform="translate(513,616)"/>
<path d="M0 0 C2.125 0.9375 2.125 0.9375 4 2 C4.04241723 4.33294775 4.04092937 6.66702567 4 9 C3 10 3 10 0.625 10.25 C-2 10 -2 10 -3.8125 8.625 C-5 7 -5 7 -5 5 C-4.01 5 -3.02 5 -2 5 C-2 3.68 -2 2.36 -2 1 C-1.34 0.67 -0.68 0.34 0 0 Z " fill="#242825" transform="translate(501,579)"/>
<path d="M0 0 C0 0.66 0 1.32 0 2 C0.99 2 1.98 2 3 2 C3 2.66 3 3.32 3 4 C3.66 4 4.32 4 5 4 C5 4.66 5 5.32 5 6 C1.04 6 -2.92 6 -7 6 C-7 4.02 -7 2.04 -7 0 C-3.98968256 -0.93423645 -3.13349732 -1.04449911 0 0 Z " fill="#212727" transform="translate(552,650)"/>
<path d="M0 0 C0.93045933 2.55144824 1.08564091 3.74006478 0.22265625 6.359375 C-0.16019531 7.14828125 -0.54304688 7.9371875 -0.9375 8.75 C-1.31777344 9.54921875 -1.69804687 10.3484375 -2.08984375 11.171875 C-2.39019531 11.77515625 -2.69054687 12.3784375 -3 13 C-3.99 12.67 -4.98 12.34 -6 12 C-7.32 13.32 -8.64 14.64 -10 16 C-9.52112335 11.23735403 -7.50511358 8.77358348 -4.4375 5.1875 C-3.61121094 4.21167969 -2.78492188 3.23585938 -1.93359375 2.23046875 C-1.29550781 1.49441406 -0.65742188 0.75835938 0 0 Z " fill="#0A1012" transform="translate(489,628)"/>
<path d="M0 0 C0.33 0 0.66 0 1 0 C1.01981934 0.55461914 1.03963867 1.10923828 1.06005859 1.68066406 C1.15557651 4.20423693 1.26514567 6.72701224 1.375 9.25 C1.4059375 10.12269531 1.436875 10.99539063 1.46875 11.89453125 C1.50742187 12.73886719 1.54609375 13.58320312 1.5859375 14.453125 C1.6173584 15.22817383 1.6487793 16.00322266 1.68115234 16.80175781 C2.03026506 19.20865742 2.80551104 20.89602295 4 23 C3.34 23.33 2.68 23.66 2 24 C2 23.01 2 22.02 2 21 C1.34 21 0.68 21 0 21 C-0.268125 19.948125 -0.53625 18.89625 -0.8125 17.8125 C-1.87161308 14.41218959 -3.12535015 11.9823975 -5 9 C-5 8.34 -5 7.68 -5 7 C-2.525 7.495 -2.525 7.495 0 8 C0 5.36 0 2.72 0 0 Z " fill="#C2C6C5" transform="translate(545,578)"/>
<path d="M0 0 C1.32 0.66 2.64 1.32 4 2 C2.625 4.5 2.625 4.5 1 7 C0.34 7 -0.32 7 -1 7 C-1.28875 7.78375 -1.5775 8.5675 -1.875 9.375 C-3 12 -3 12 -5 14 C-5.602537 7.01057082 -5.602537 7.01057082 -3.88671875 4.1328125 C-2.66254412 2.69138998 -1.33721771 1.33721771 0 0 Z " fill="#D3D6D5" transform="translate(494,614)"/>
<path d="M0 0 C3 1 3 1 4.1875 3.0625 C4.455625 3.701875 4.72375 4.34125 5 5 C3.8125 6.5625 3.8125 6.5625 2 8 C-0.6875 7.6875 -0.6875 7.6875 -3 7 C-3 7.99 -3 8.98 -3 10 C-3.66 10 -4.32 10 -5 10 C-3.84414715 6.08788267 -2.64465038 3.1254959 0 0 Z " fill="#C9CDCB" transform="translate(528,598)"/>
<path d="M0 0 C2 2 2 2 2.125 4.625 C2.08375 5.40875 2.0425 6.1925 2 7 C2.66 7.33 3.32 7.66 4 8 C3.67 8.66 3.34 9.32 3 10 C0.83125748 9.49396008 -0.99967627 9.00016187 -3 8 C-3.1875 5.125 -3.1875 5.125 -3 2 C-2.01 1.34 -1.02 0.68 0 0 Z " fill="#90958F" transform="translate(536,498)"/>
<path d="M0 0 C0.80244141 0.00966797 1.60488281 0.01933594 2.43164062 0.02929688 C3.26501953 0.05443359 4.09839844 0.07957031 4.95703125 0.10546875 C6.22450195 0.12577148 6.22450195 0.12577148 7.51757812 0.14648438 C9.60183509 0.18181076 11.68576402 0.23561736 13.76953125 0.29296875 C13.76953125 0.62296875 13.76953125 0.95296875 13.76953125 1.29296875 C12.53203125 1.43734375 11.29453125 1.58171875 10.01953125 1.73046875 C7.20448626 2.07985377 4.49938155 2.49676241 1.76953125 3.29296875 C1.76953125 2.63296875 1.76953125 1.97296875 1.76953125 1.29296875 C-0.25092317 1.89480624 -2.25157914 2.56602971 -4.23046875 3.29296875 C-5.37861872 5.58926869 -5.53816684 7.36994961 -5.79296875 9.91796875 C-5.87675781 10.73523438 -5.96054687 11.5525 -6.046875 12.39453125 C-6.10746094 13.02101563 -6.16804687 13.6475 -6.23046875 14.29296875 C-6.56046875 14.29296875 -6.89046875 14.29296875 -7.23046875 14.29296875 C-7.31160981 12.52289161 -7.3697238 10.75174777 -7.41796875 8.98046875 C-7.45277344 7.99433594 -7.48757813 7.00820313 -7.5234375 5.9921875 C-7.23046875 3.29296875 -7.23046875 3.29296875 -5.9765625 1.64257812 C-3.80656004 -0.03468329 -2.71544904 -0.05777551 0 0 Z " fill="#373C3C" transform="translate(526.23046875,481.70703125)"/>
<path d="M0 0 C0.33 0 0.66 0 1 0 C1.5339744 3.08120684 2.04985551 6.16517859 2.5625 9.25 C2.71396484 10.12269531 2.86542969 10.99539063 3.02148438 11.89453125 C3.16005859 12.73886719 3.29863281 13.58320312 3.44140625 14.453125 C3.57232666 15.22817383 3.70324707 16.00322266 3.83813477 16.80175781 C4.01095576 19.14878688 3.76830375 20.78315754 3 23 C1.4375 24.75 1.4375 24.75 0 26 C0.08378906 25.11957031 0.16757812 24.23914063 0.25390625 23.33203125 C0.35574219 22.17058594 0.45757813 21.00914062 0.5625 19.8125 C0.66691406 18.66394531 0.77132812 17.51539063 0.87890625 16.33203125 C0.98971628 13.28296826 0.66846297 10.94910136 0 8 C-0.11678799 5.32321927 -0.0454506 2.68158543 0 0 Z " fill="#6A6F6F" transform="translate(513,573)"/>
<path d="M0 0 C0.33 0.66 0.66 1.32 1 2 C1.66 2 2.32 2 3 2 C3 1.34 3 0.68 3 0 C3.66 0.33 4.32 0.66 5 1 C4.46930939 4.82097239 3.50298434 7.06171403 1 10 C-0.32 9.34 -1.64 8.68 -3 8 C-2.5359375 7.13375 -2.5359375 7.13375 -2.0625 6.25 C-1.07416636 4.15705816 -0.4831387 2.25464725 0 0 Z " fill="#E6E6E4" transform="translate(507,630)"/>
<path d="M0 0 C1.32 0 2.64 0 4 0 C4 0.66 4 1.32 4 2 C4.66 2 5.32 2 6 2 C6 2.66 6 3.32 6 4 C6.99 4.33 7.98 4.66 9 5 C8.67 6.32 8.34 7.64 8 9 C7.4225 8.319375 6.845 7.63875 6.25 6.9375 C5.5075 6.298125 4.765 5.65875 4 5 C1.78141747 5.13641377 1.78141747 5.13641377 0 6 C0 4.02 0 2.04 0 0 Z " fill="#1E2525" transform="translate(526,594)"/>
<path d="M0 0 C1.2065625 0.0309375 1.2065625 0.0309375 2.4375 0.0625 C1.4475 1.5475 1.4475 1.5475 0.4375 3.0625 C-1.90087891 3.49487305 -1.90087891 3.49487305 -4.7890625 3.57421875 C-6.3359375 3.62739258 -6.3359375 3.62739258 -7.9140625 3.68164062 C-8.99429688 3.70419922 -10.07453125 3.72675781 -11.1875 3.75 C-12.27546875 3.78416016 -13.3634375 3.81832031 -14.484375 3.85351562 C-17.17698063 3.93618334 -19.86925291 4.00527087 -22.5625 4.0625 C-22.5625 3.4025 -22.5625 2.7425 -22.5625 2.0625 C-21.99217041 2.03744385 -21.42184082 2.0123877 -20.83422852 1.98657227 C-18.26423843 1.87093451 -15.69464473 1.74806376 -13.125 1.625 C-12.22716797 1.58568359 -11.32933594 1.54636719 -10.40429688 1.50585938 C-9.55029297 1.46396484 -8.69628906 1.42207031 -7.81640625 1.37890625 C-7.02564697 1.34224854 -6.2348877 1.30559082 -5.42016602 1.26782227 C-2.82760296 0.98127403 -2.85788876 0.0697046 0 0 Z " fill="#D3D4D2" transform="translate(567.5625,654.9375)"/>
<path d="M0 0 C0.33 0 0.66 0 1 0 C1 4.29 1 8.58 1 13 C4.96 13 8.92 13 13 13 C13 12.34 13 11.68 13 11 C14.32 11.33 15.64 11.66 17 12 C16.67 12.66 16.34 13.32 16 14 C10.72 14 5.44 14 0 14 C0 9.38 0 4.76 0 0 Z " fill="#949897" transform="translate(544,643)"/>
<path d="M0 0 C3.63 0.33 7.26 0.66 11 1 C11 2.98 11 4.96 11 7 C9.35 7.66 7.7 8.32 6 9 C6 7.68 6 6.36 6 5 C6.66 5 7.32 5 8 5 C8 4.34 8 3.68 8 3 C5.36 2.34 2.72 1.68 0 1 C0 0.67 0 0.34 0 0 Z " fill="#4E5351" transform="translate(560,643)"/>
<path d="M0 0 C1.5 1.0625 1.5 1.0625 3 3 C3.1875 6.6875 3.1875 6.6875 3 10 C3.99 10 4.98 10 6 10 C5.67 11.98 5.34 13.96 5 16 C4.01 16 3.02 16 2 16 C0.80911014 10.61972975 -0.2919519 5.54708616 0 0 Z M7 8 C7.33 8.66 7.66 9.32 8 10 C7.34 9.67 6.68 9.34 6 9 C6.33 8.67 6.66 8.34 7 8 Z " fill="#151B1C" transform="translate(538,614)"/>
<path d="M0 0 C2 1.375 2 1.375 4 3 C4 3.66 4 4.32 4 5 C7.96 5 11.92 5 16 5 C16 5.33 16 5.66 16 6 C13.7089095 6.19441368 11.41709663 6.38033135 9.125 6.5625 C7.21074219 6.71912109 7.21074219 6.71912109 5.2578125 6.87890625 C2 7 2 7 0 6 C0 4.02 0 2.04 0 0 Z " fill="#BFC0C0" transform="translate(488,649)"/>
<path d="M0 0 C0.99 0 1.98 0 3 0 C2.25 6.75 2.25 6.75 0 9 C-0.66 8.01 -1.32 7.02 -2 6 C-2.66 5.67 -3.32 5.34 -4 5 C-2.1875 2.5 -2.1875 2.5 0 0 Z " fill="#C8C9C8" transform="translate(502,631)"/>
<path d="M0 0 C4 0 4 0 6.25 1.8125 C8 4 8 4 8 7 C7.34 7 6.68 7 6 7 C5.67 8.32 5.34 9.64 5 11 C3.875 6.25 3.875 6.25 5 4 C2.03 3.505 2.03 3.505 -1 3 C-0.67 2.01 -0.34 1.02 0 0 Z " fill="#646964" transform="translate(500,577)"/>
<path d="M0 0 C0.33 1.32 0.66 2.64 1 4 C-5.75 4.125 -5.75 4.125 -8 3 C-8 2.34 -8 1.68 -8 1 C-5.29120665 -0.35439668 -2.99066732 -0.06501451 0 0 Z " fill="#07090B" transform="translate(503,649)"/>
<path d="M0 0 C0.33 0.99 0.66 1.98 1 3 C0.67 3.66 0.34 4.32 0 5 C0.66 5.33 1.32 5.66 2 6 C1.01 6 0.02 6 -1 6 C-1.33 6.66 -1.66 7.32 -2 8 C-2.66 7.34 -3.32 6.68 -4 6 C-3.8125 4 -3.8125 4 -3 2 C-2.01 1.34 -1.02 0.68 0 0 Z " fill="#CCCECC" transform="translate(513,616)"/>
<path d="M0 0 C1.953125 0.5859375 1.953125 0.5859375 4 2 C4.609375 5.0390625 4.609375 5.0390625 4.75 8.625 C4.80671875 9.81351563 4.8634375 11.00203125 4.921875 12.2265625 C4.94765625 13.14179687 4.9734375 14.05703125 5 15 C4.34 15 3.68 15 3 15 C2.92652344 14.00419922 2.92652344 14.00419922 2.8515625 12.98828125 C2.28874188 6.2887764 2.28874188 6.2887764 0 0 Z " fill="#AFB4B5" transform="translate(533,603)"/>
<path d="M0 0 C0.33 1.32 0.66 2.64 1 4 C-3.5 8 -3.5 8 -8 8 C-7.67 7.01 -7.34 6.02 -7 5 C-5.33927151 4.31867549 -3.672233 3.65257873 -2 3 C-1.34 2.01 -0.68 1.02 0 0 Z " fill="#B4B5B7" transform="translate(522,608)"/>
<path d="M0 0 C1.98 0 3.96 0 6 0 C5.34 1.98 4.68 3.96 4 6 C3.01 6 2.02 6 1 6 C0.67 4.02 0.34 2.04 0 0 Z " fill="#595C59" transform="translate(505,572)"/>
<path d="M0 0 C0.33 0 0.66 0 1 0 C1 5.61 1 11.22 1 17 C0.01 17.33 -0.98 17.66 -2 18 C-1.34 12.06 -0.68 6.12 0 0 Z " fill="#CBCDCA" transform="translate(542,488)"/>
<path d="M0 0 C1.32 0.33 2.64 0.66 4 1 C4.33 2.98 4.66 4.96 5 7 C4.01 6.67 3.02 6.34 2 6 C1.67 6.99 1.34 7.98 1 9 C0.67 6.03 0.34 3.06 0 0 Z " fill="#C5C7C6" transform="translate(553,625)"/>
<path d="M0 0 C1 2 1 2 0.4375 4.5625 C-1 7 -1 7 -4.125 7.8125 C-5.548125 7.9053125 -5.548125 7.9053125 -7 8 C-6.1875 6.0625 -6.1875 6.0625 -5 4 C-4.01 3.67 -3.02 3.34 -2 3 C-1.34 2.01 -0.68 1.02 0 0 Z " fill="#444848" transform="translate(503,610)"/>
<path d="M0 0 C0.66 0.66 1.32 1.32 2 2 C1.67 2.99 1.34 3.98 1 5 C0.34 4.67 -0.32 4.34 -1 4 C-1.33 4.99 -1.66 5.98 -2 7 C-1.01 7.33 -0.02 7.66 1 8 C0.01 8.495 0.01 8.495 -1 9 C-1.66 8.67 -2.32 8.34 -3 8 C-3.1875 5.125 -3.1875 5.125 -3 2 C-2.01 1.34 -1.02 0.68 0 0 Z " fill="#808681" transform="translate(536,498)"/>
<path d="M0 0 C0.99 0.495 0.99 0.495 2 1 C2 1.66 2 2.32 2 3 C2.66 3.33 3.32 3.66 4 4 C3.42655063 6.86724686 3.1385485 7.8614515 1 10 C0.67 6.7 0.34 3.4 0 0 Z " fill="#0F1316" transform="translate(544,638)"/>
<path d="M0 0 C0.66 0 1.32 0 2 0 C2.75 2.25 2.75 2.25 3 5 C1.0625 7.3125 1.0625 7.3125 -1 9 C-0.67 6.03 -0.34 3.06 0 0 Z " fill="#3F4344" transform="translate(514,590)"/>
<path d="M0 0 C0.33 0.99 0.66 1.98 1 3 C0.00390625 4.82421875 0.00390625 4.82421875 -1.4375 6.6875 C-1.91058594 7.31011719 -2.38367188 7.93273437 -2.87109375 8.57421875 C-3.24363281 9.04472656 -3.61617188 9.51523437 -4 10 C-4.33 9.01 -4.66 8.02 -5 7 C-4.00390625 5.17578125 -4.00390625 5.17578125 -2.5625 3.3125 C-2.08941406 2.68988281 -1.61632812 2.06726563 -1.12890625 1.42578125 C-0.75636719 0.95527344 -0.38382812 0.48476563 0 0 Z " fill="#474C4B" transform="translate(484,634)"/>
<path d="M0 0 C1.0326802 2.78823655 1.04509293 3.8677274 0.0625 6.75 C-0.288125 7.4925 -0.63875 8.235 -1 9 C-1.33 8.01 -1.66 7.02 -2 6 C-2.66 5.67 -3.32 5.34 -4 5 C-2.68 3.35 -1.36 1.7 0 0 Z " fill="#2D3232" transform="translate(489,628)"/>
<path d="M0 0 C4 4.625 4 4.625 4 8 C2.35 7.67 0.7 7.34 -1 7 C-0.67 4.69 -0.34 2.38 0 0 Z " fill="#353A3B" transform="translate(540,587)"/>
<path d="M0 0 C0.33 0 0.66 0 1 0 C1 2.97 1 5.94 1 9 C-0.32 9 -1.64 9 -3 9 C-3.33 9.66 -3.66 10.32 -4 11 C-4.33 9.68 -4.66 8.36 -5 7 C-2.525 7.495 -2.525 7.495 0 8 C0 5.36 0 2.72 0 0 Z " fill="#9C9F9E" transform="translate(545,578)"/>
<path d="M0 0 C2.60018816 3.90028225 2.15085514 7.47434569 2 12 C0.14404895 8.53555803 -1.33300647 5.7126047 -0.5625 1.75 C-0.376875 1.1725 -0.19125 0.595 0 0 Z " fill="#3E4344" transform="translate(542,542)"/>
<path d="M0 0 C0 3 0 3 -1 6 C-4.0625 7.1875 -4.0625 7.1875 -7 8 C-6.02133662 6.85373678 -5.04205413 5.70800212 -4.0625 4.5625 C-3.51722656 3.92441406 -2.97195313 3.28632813 -2.41015625 2.62890625 C-1.63204305 1.73008851 -0.84063472 0.84063472 0 0 Z " fill="#3B403E" transform="translate(520,507)"/>
<path d="M0 0 C0.33 0 0.66 0 1 0 C1.1875 2.375 1.1875 2.375 1 5 C0.01 5.66 -0.98 6.32 -2 7 C-2.66 6.67 -3.32 6.34 -4 6 C-4 4.35 -4 2.7 -4 1 C-2.68 1.99 -1.36 2.98 0 4 C0 2.68 0 1.36 0 0 Z " fill="#181A1C" transform="translate(508,620)"/>
<path d="M0 0 C0.33 0.99 0.66 1.98 1 3 C-1.31 4.65 -3.62 6.3 -6 8 C-4.55746343 4.63408134 -2.66735273 2.48952921 0 0 Z " fill="#4D5151" transform="translate(512,600)"/>
<path d="M0 0 C0.66 0 1.32 0 2 0 C2 1.65 2 3.3 2 5 C1.01 5 0.02 5 -1 5 C-1.33 5.66 -1.66 6.32 -2 7 C-1.125 1.125 -1.125 1.125 0 0 Z " fill="#B1B3B1" transform="translate(497,579)"/>
<path d="M0 0 C0.99 0 1.98 0 3 0 C2.1875 2.4375 2.1875 2.4375 1 5 C0.01 5.33 -0.98 5.66 -2 6 C-1.34 4.02 -0.68 2.04 0 0 Z " fill="#D0D0D0" transform="translate(560,613)"/>
</svg>
